<svg width="34" height="27" viewBox="0 0 34 27" fill="none" xmlns="http://www.w3.org/2000/svg">
<g id="google logo" clip-path="url(#clip0_4_16)">
<path id="Vector" d="M32.4648 13.7526C32.4648 12.6464 32.3576 11.8392 32.1258 11.0021H17.0486V15.9948H25.8986C25.7202 17.2356 24.7567 19.1042 22.6155 20.3598L22.5855 20.5269L27.3526 23.6209L27.6829 23.6485C30.7161 21.3016 32.4648 17.8484 32.4648 13.7526Z" fill="#4285F4"/>
<path id="Vector_2" d="M17.0486 26.9073C21.3843 26.9073 25.0242 25.7113 27.6829 23.6485L22.6155 20.3598C21.2595 21.152 19.4395 21.7051 17.0486 21.7051C12.802 21.7051 9.19783 19.3583 7.91302 16.1145L7.7247 16.1279L2.76778 19.3418L2.70296 19.4928C5.34366 23.8876 10.7679 26.9073 17.0486 26.9073Z" fill="#34A853"/>
<path id="Vector_3" d="M7.91303 16.1145C7.57402 15.2774 7.37783 14.3804 7.37783 13.4536C7.37783 12.5268 7.57402 11.6299 7.89519 10.7928L7.88621 10.6145L2.86718 7.34895L2.70296 7.41439C1.6146 9.23813 0.990097 11.2861 0.990097 13.4536C0.990097 15.6212 1.6146 17.669 2.70296 19.4928L7.91303 16.1145Z" fill="#FBBC05"/>
<path id="Vector_4" d="M17.0486 5.20203C20.064 5.20203 22.098 6.29327 23.2578 7.20519L27.7899 3.49794C25.0065 1.33042 21.3843 0 17.0486 0C10.7679 0 5.34366 3.01957 2.70296 7.41439L7.89519 10.7928C9.19783 7.54897 12.802 5.20203 17.0486 5.20203Z" fill="#EB4335"/>
</g>
<defs>
<clipPath id="clip0_4_16">
<rect width="32.2277" height="27" fill="white" transform="translate(0.990097)"/>
</clipPath>
</defs>
</svg>
